<?xml version="1.0" encoding="UTF-8" standalone="no"?>
<!-- Created with Inkscape (http://www.inkscape.org/) -->

<svg
   width="512"
   height="512"
   viewBox="0 0 512 512"
   version="1.1"
   id="svg1"
   inkscape:version="1.4 (86a8ad7, 2024-10-11)"
   sodipodi:docname="logo.svg"
   xmlns:inkscape="http://www.inkscape.org/namespaces/inkscape"
   xmlns:sodipodi="http://sodipodi.sourceforge.net/DTD/sodipodi-0.dtd"
   xmlns="http://www.w3.org/2000/svg"
   xmlns:svg="http://www.w3.org/2000/svg">
  <sodipodi:namedview
     id="namedview1"
     pagecolor="#ffffff"
     bordercolor="#000000"
     borderopacity="0.25"
     inkscape:showpageshadow="2"
     inkscape:pageopacity="0.0"
     inkscape:pagecheckerboard="0"
     inkscape:deskcolor="#d1d1d1"
     inkscape:document-units="px"
     inkscape:zoom="0.70710678"
     inkscape:cx="287.08535"
     inkscape:cy="43.133513"
     inkscape:window-width="2560"
     inkscape:window-height="1369"
     inkscape:window-x="-8"
     inkscape:window-y="-8"
     inkscape:window-maximized="1"
     inkscape:current-layer="svg1"
     showgrid="false" />
  <defs
     id="defs1">
    <inkscape:path-effect
       effect="fillet_chamfer"
       id="path-effect4"
       is_visible="true"
       lpeversion="1"
       nodesatellites_param="F,0,0,1,0,0,0,1 @ F,0,0,1,0,0,0,1 @ F,0,0,1,0,0,0,1 @ F,0,0,1,0,0,0,1 @ F,0,0,1,0,0,0,1 @ F,0,0,1,0,0,0,1 @ F,0,0,1,0,0,0,1 @ F,0,0,1,0,0,0,1"
       radius="0"
       unit="px"
       method="auto"
       mode="F"
       chamfer_steps="1"
       flexible="false"
       use_knot_distance="true"
       apply_no_radius="true"
       apply_with_radius="true"
       only_selected="false"
       hide_knots="false" />
  </defs>
  <g
     inkscape:label="Warstwa 1"
     inkscape:groupmode="layer"
     id="layer1"
     sodipodi:insensitive="true"
     style="display:none">
    <path
       style="fill:#000000;fill-opacity:1;stroke:#000000;stroke-width:0.377953;stroke-linejoin:bevel;paint-order:stroke fill markers"
       d="M 50.188976,0 V 512"
       id="path1" />
    <path
       style="fill:#000000;fill-opacity:1;stroke:#000000;stroke-width:0.377953;stroke-linejoin:bevel;paint-order:stroke fill markers"
       d="M 462.18898,0 V 512"
       id="path1-8" />
    <path
       style="fill:#000000;fill-opacity:1;stroke:#000000;stroke-width:0.377953;stroke-linejoin:bevel;paint-order:stroke fill markers"
       d="M 0,50.188976 H 512"
       id="path2" />
    <path
       style="fill:#000000;fill-opacity:1;stroke:#000000;stroke-width:0.377953;stroke-linejoin:bevel;paint-order:stroke fill markers"
       d="M 0,462.18898 H 512"
       id="path2-5" />
  </g>
  <g
     inkscape:groupmode="layer"
     id="layer3"
     inkscape:label="backgorund" />
  <g
     inkscape:groupmode="layer"
     id="layer4"
     inkscape:label="cutout">
    <ellipse
       style="fill:#ffa726;fill-opacity:1;stroke:#ffa726;stroke-width:14.4667;stroke-linecap:round;stroke-linejoin:round;stroke-dasharray:none;stroke-opacity:1;paint-order:stroke fill markers"
       id="path14"
       cx="256.18896"
       cy="256.189"
       rx="198.76665"
       ry="198.76666" />
    <g
       id="path12-1-7-9">
      <path
         style="fill:#ffffff;stroke-linecap:round;stroke-linejoin:round;paint-order:stroke fill markers"
         d="m 231.31641,172.08594 c -5.17775,0.45728 -9.27768,4.28915 -11.78907,9.42968 -2.51139,5.14054 -3.63716,11.77091 -2.98632,18.88868 0.65083,7.11777 2.96037,13.44225 6.36132,18.05664 3.40095,4.61439 8.12108,7.66236 13.29883,7.20508 5.17776,-0.45728 9.27767,-4.28916 11.78906,-9.42969 2.5114,-5.14054 3.63717,-11.7709 2.98633,-18.88867 -0.65084,-7.11778 -2.96037,-13.44225 -6.36133,-18.05664 -3.40095,-4.61439 -8.12107,-7.66237 -13.29882,-7.20508 z m 49.93554,0 c -5.17775,-0.45728 -9.89592,2.59069 -13.29687,7.20508 -3.40095,4.61439 -5.71245,10.93887 -6.36328,18.05664 -0.65084,7.11776 0.47494,13.74814 2.98632,18.88867 2.51139,5.14053 6.61327,8.9724 11.79102,9.42969 5.17775,0.45728 9.89592,-2.59069 13.29688,-7.20508 3.40095,-4.61439 5.71244,-10.93887 6.36328,-18.05664 0.65084,-7.11778 -0.47494,-13.74814 -2.98633,-18.88868 -2.51139,-5.14053 -6.61326,-8.97241 -11.79102,-9.42968 z m -49.49414,4.98047 c 2.95676,-0.26114 6.09802,1.48191 8.83203,5.1914 2.73401,3.70949 4.83192,9.24247 5.40821,15.54492 0.57628,6.30246 -0.48478,12.11335 -2.5,16.23829 -2.01523,4.12493 -4.77957,6.3834 -7.73633,6.64453 -2.95676,0.26113 -6.09998,-1.48192 -8.83399,-5.19141 -2.734,-3.70949 -4.83191,-9.24247 -5.4082,-15.54492 -0.57629,-6.30245 0.48478,-12.11334 2.5,-16.23828 2.01523,-4.12494 4.78153,-6.3834 7.73828,-6.64453 z m 49.05469,0 c 2.95676,0.26112 5.72305,2.51959 7.73828,6.64453 2.01523,4.12494 3.07629,9.93583 2.5,16.23828 -0.57628,6.30245 -2.67419,11.83543 -5.4082,15.54492 -2.73401,3.70949 -5.87723,5.45254 -8.83399,5.19141 -2.95675,-0.26114 -5.72305,-2.5196 -7.73828,-6.64453 -2.01522,-4.12494 -3.07433,-9.93584 -2.49804,-16.23829 0.57628,-6.30244 2.67224,-11.83543 5.40625,-15.54492 2.734,-3.70949 5.87723,-5.45253 8.83398,-5.1914 z m -90.61328,16.67773 c -1.06666,-0.033 -2.13738,0.0974 -3.19727,0.41602 -4.23953,1.2745 -6.94844,5.17189 -8.0957,9.77343 -1.14726,4.60154 -0.90167,10.12996 0.84766,15.74805 1.74933,5.61809 4.69178,10.32676 8.25195,13.5 3.56017,3.17325 7.98507,4.90732 12.22461,3.63281 4.23953,-1.2745 6.94845,-5.17189 8.0957,-9.77343 1.14726,-4.60154 0.90168,-10.12801 -0.84765,-15.7461 -1.74934,-5.61808 -4.69179,-10.32871 -8.25196,-13.50195 -2.67012,-2.37993 -5.82738,-3.94976 -9.02734,-4.04883 z m 132.17187,0 c -3.19996,0.0991 -6.35722,1.6689 -9.02734,4.04883 -3.56017,3.17324 -6.50457,7.88386 -8.25391,13.50195 -1.74933,5.61809 -1.99295,11.14456 -0.8457,15.7461 1.14725,4.60154 3.85422,8.49893 8.09375,9.77343 4.23953,1.27451 8.66444,-0.45957 12.22461,-3.63281 3.56017,-3.17324 6.50457,-7.88191 8.25391,-13.5 1.74933,-5.61809 1.99295,-11.1465 0.8457,-15.74805 -1.14726,-4.60154 -3.85421,-8.49893 -8.09375,-9.77343 -1.05988,-0.31863 -2.13061,-0.44904 -3.19727,-0.41602 z m -132.26367,4.99805 c 1.7536,0.0667 3.74573,0.96019 5.79102,2.7832 2.72705,2.43068 5.30003,6.41729 6.80664,11.25586 1.50661,4.83857 1.64206,9.55112 0.76953,13.05078 -0.87253,3.49966 -2.58509,5.56445 -4.68359,6.19531 -2.09851,0.63086 -4.72998,-0.14744 -7.45704,-2.57812 -2.72705,-2.43068 -5.30003,-6.41729 -6.80664,-11.25586 -1.5066,-4.83857 -1.64206,-9.54917 -0.76953,-13.04883 0.87254,-3.49966 2.5851,-5.56641 4.6836,-6.19726 0.52462,-0.15772 1.08148,-0.22731 1.66601,-0.20508 z m 132.35352,0 c 0.58453,-0.0222 1.14334,0.0474 1.66797,0.20508 2.0985,0.63085 3.8091,2.6976 4.68164,6.19726 0.87253,3.49967 0.73903,8.21026 -0.76758,13.04883 -1.50661,4.83857 -4.07959,8.82518 -6.80664,11.25586 -2.72706,2.43067 -5.36048,3.20899 -7.45899,2.57812 -2.0985,-0.63086 -3.8091,-2.69565 -4.68164,-6.19531 -0.87253,-3.49966 -0.73903,-8.21221 0.76758,-13.05078 1.50661,-4.83857 4.07959,-8.82518 6.80664,-11.25586 2.04529,-1.82301 4.03742,-2.71651 5.79102,-2.7832 z"
         id="path3" />
      <path
         style="fill:#ffffff;stroke-linecap:round;stroke-linejoin:round;paint-order:stroke fill markers"
         d="m 307.47728,212.03755 a 11.982474,19.830618 17.61923 0 0 5.58062,22.38342 11.982474,19.830618 17.61923 0 0 17.37144,-15.48348 11.982474,19.830618 17.61923 0 0 -5.58063,-22.38343 11.982474,19.830618 17.61923 0 0 -17.37143,15.48349 z m -43.39549,-14.46221 a 14.786043,24.400897 5.3274708 0 0 12.50691,25.60026 14.786043,24.400897 5.3274708 0 0 16.95074,-22.99866 14.786043,24.400897 5.3274708 0 0 -12.50693,-25.60026 14.786043,24.400897 5.3274708 0 0 -16.95072,22.99866 z m -15.59409,0 a 24.400897,14.786043 84.672529 0 1 -12.50693,25.60026 24.400897,14.786043 84.672529 0 1 -16.95073,-22.99866 24.400897,14.786043 84.672529 0 1 12.50692,-25.60026 24.400897,14.786043 84.672529 0 1 16.95074,22.99866 z m -43.39547,14.46222 a 19.830618,11.982474 72.38077 0 1 -5.58062,22.38342 19.830618,11.982474 72.38077 0 1 -17.37144,-15.48349 19.830618,11.982474 72.38077 0 1 5.58063,-22.38341 19.830618,11.982474 72.38077 0 1 17.37143,15.48348 z"
         id="path4" />
    </g>
    <path
       id="path9-2"
       style="fill:none;fill-opacity:0;stroke:#ffffff;stroke-width:20;stroke-linecap:round;stroke-linejoin:round;paint-order:stroke fill markers"
       d="m 312.7167,269.57876 a 29.845736,29.100168 0 0 0 -22.72517,-28.24449 29.845736,29.100168 0 0 0 -33.56137,14.76185 m -114.4431,102.31604 h 85.41989 M 368.96046,182.60086 255.47385,119.19989 m -113.48679,63.40097 113.48679,-63.40097 m 113.48661,63.40097 v 175.8113 m -226.9734,-175.8113 v 175.8113 m 140.43642,0 h 86.53698 M 256.76952,335.59132 227.40695,358.41216 M 199.85276,269.5788 c 0.0785,18.9197 31.73697,46.74526 56.91676,66.01252 m -56.91675,-66.01256 a 29.845736,29.100168 0 0 1 22.77734,-28.25694 29.845736,29.100168 0 0 1 33.55885,14.86717 m 56.52776,13.38981 c -0.0785,18.9197 -30.7674,46.74526 -55.9472,66.01252" />
  </g>
</svg>
